/* XPM */
static char *_735db458a10453489d1a737292ed4a2VUTqdx7TCj2sYI9B[] = {
/* columns rows colors chars-per-pixel */
"127 127 59 1 ",
"  c #63747D",
". c gray50",
"X c #373737",
"o c black",
"O c gray12",
"+ c #4B3B1B",
"@ c gray45",
"# c #4B4B4B",
"$ c #2B230F",
"% c #232323",
"& c #2F2F2F",
"* c #434343",
"= c #676767",
"- c gray56",
"; c gray23",
": c #0B0000",
"> c gray34",
", c #5B5B5B",
"< c #0F0000",
"1 c #B7B7B7",
"2 c #7B7B7B",
"3 c #9B9B9B",
"4 c #573F1F",
"5 c #5F4323",
"6 c #43331B",
"7 c LightGray",
"8 c gray67",
"9 c #DFDFDF",
"0 c #070000",
"q c #C3C3C3",
"w c #875333",
"e c #DF8B57",
"r c #FFB383",
"t c #FFA773",
"y c #935F37",
"u c #A3673F",
"i c #1B0700",
"p c #F3975F",
"a c #BF7B4B",
"s c #CB7F4F",
"d c #FFBF9F",
"f c #B77347",
"g c #3B2F17",
"h c #EB8F5B",
"j c #D38353",
"k c #8B5B33",
"l c #6F4B27",
"z c #AB6B43",
"x c #9F633B",
"c c #FFC7A7",
"v c #FFDBC7",
"b c #FF9F63",
"n c #FFCFB3",
"m c #83532F",
"M c #774F2B",
"N c #C3774B",
"B c #EBA377",
"V c #EFBB9B",
"C c white",
/* pixels */
"                                                                                                                               ",
"                                                                                                                               ",
"                                                                                                                               ",
"                                                                                                                               ",
"                                                                                                                               ",
"                                                                                                                               ",
"                                                                                                                               ",
"                                                                                                                               ",
"                                                                                                                               ",
"                                                                                                                               ",
"                                                                                                                               ",
"                                                                                                                               ",
"                                                                                                                               ",
"                                                                                                                               ",
"                                                                                                                               ",
"                                                                                                                               ",
"                                                                                                                               ",
"                                                                                                                               ",
"                                                                                                                               ",
"                                                                                                                               ",
"                                                                                                                               ",
"                                                                                                                               ",
"                                                                                                                               ",
"                                                                                                                               ",
"                                                                                                                               ",
"                                                                                                                               ",
"                                                                                                                               ",
"                                                                                                                               ",
"                                                                                                                               ",
"                                                                                                                               ",
"                                                                                                                               ",
"                                                                                                                               ",
"                                                                                                                               ",
"                                                                                                                               ",
"                                                                                                                               ",
"                                                                                                                               ",
"                                                                                                                               ",
"                                                                                                                               ",
"                                                                                                                               ",
"                                                                                                                               ",
"                                                                                                                               ",
"                                                                                                                               ",
"                                                                                                                               ",
"                                                                                                                               ",
"                                                                                                                               ",
"                                                                                                                               ",
"                                                                                                                               ",
"                                                                                                                               ",
"                                                                                                                               ",
"                                                                                                                               ",
"                                                                                                                               ",
"                                                                                                                               ",
"                                                                                                                               ",
"                                                                                                                               ",
"                                                                                                                               ",
"                                                                                                                               ",
"                                                                                                                               ",
"                                                                                                                               ",
"                                                                                                                               ",
"                                                                                                                               ",
"                                                                                                                               ",
"                                                                                                                               ",
"                                                                                                                               ",
"                                                                                                                               ",
"                                                                                                                               ",
"                                                                                                                               ",
"                                                                                                                               ",
"                                                                                                                               ",
"                                                                                                                               ",
"                                                                                                                               ",
"                                                                                                                               ",
"                                                                  .X                                                           ",
"                                                                  Xo                                                           ",
"                                                                OXOOOO                                                         ",
"                                                              O+@#$O%X&O                                                       ",
"                                                             O*=-=$O%;X&O                                                      ",
"                                                             X*&$OOOO$&&&                                                      ",
"                                                            X&OOooooooO$&O                                                     ",
"                                                            %O:o%&X%%Ooo$$                                                     ",
"                                                            %oo;X*;%O$$oo$                                                     ",
"                                                            ooX@>,#&%$&$<o                                                     ",
"                                                            o&#-@>#X&$&X$o                                                     ",
"                                                            o#,12,#XX$&;$<                                                     ",
"                                                            $#=314#%.5$;$<                                                     ",
"                                                            X#2@oo;%oo$&$<                                                     ",
"                                                        OO&;X@,%oooooooX&$#;&%                                                 ",
"                                                       O&&;&=-.,*66&%O$&&$&;OOo                                                ",
"                                                       O&&X&@7831=#;%%$$&$&#$Oo                                                ",
"                                                     X,@98X&,.3-@#X%OOOO$$&,;Oo                                                ",
"                                                    X6#>>@6;.173.>;&%%OoO&*=%3=X                                               ",
"                                                    4oOO&OO#-93*oooooooooO;#%=>;;                                              ",
"                                                     OO*3*%#-7*1,>;X&$$<oo%;O%OO&                                              ",
"                                                     %%&=%X*31o@;X&$$OO%oo:$%OoO$                                              ",
"                                                     *XO*X%X.1o,$$<OoooOoo:$$OOO$                                              ",
"                                                      Ooo#%#,@OXooooooo0ooo<:&oo                                               ",
"                                                      +OO*&>==&oooooooooooo$o;oo                                               ",
"                                                      %X%X%3@>&ooooooooooo<%oXoo                                               ",
"                                                      6OO%Oq3@,*XX&$oooooo$&O&oo                                               ",
"                                                     w%,&;O7.>;&%%$oooooo<$Xo$ooerrrte                                         ",
"                                                   yu&6OO#i8=*X%%<oooooo<$$&o$ooprrrrte                                        ",
"                                                 yuaa%#.#XO#>#;&%%::o<o%$$&%o$oouusrdrps                                       ",
"                                               yufasagO%X&ig,=#;;;;;&%%$$&$Oo<oo5whrddte                                       ",
"                                              yufsjefkoO&%&i%+#@>##;;Xgg$<O:oooO+lhrddrts                                      ",
"                                             yuzfaseeewOo%*X&OooooooooooooooooO$$lxhccdte                                      ",
"                                            yuyuzetrrrewOO%,#=OO%oOOoooooooll$$$aetcvvcrt                                      ",
"                                            yxuuertbbrrpxO%&=3%#3O;Xo0ooolxsfk$atrndtbtdte                                     ",
"                                           yyxxertphhbtrby4O$=oX#o#%ooolxsffumarrrtpphehpb                                     ",
"                                           yxuetphjjjhpttby4+6$6gOooo4mffzxmmsrrtppeesaaeps                                    ",
"                                          xaeejphjssseeptrtey44$$$$lmffzxmmueddtpphjjsffaes                                    ",
"                                         aasjpffjfuaseehbtrddtpzwwwfzzyymspjdrtpphjjjjsffsz                                    ",
"                                         aepefykjuyzaahhbrrpjhptpzwwwwwspjerrtpejjassjsffzx                                    ",
"                                         xaffuklk4mmzfahbrpaasjeptpjauusprttphjjsaffasffzxk                                    ",
"                                          xzzkl+$4Mmmyfebbaffasjepbtbpeeeeejjsssafffafzzykm                                    ",
"                                         kukmM+$g$Mxmmxjphafffasjeppbttbpejsaafffffafzzxymmm                                   ",
"                                         kuxyym5+6g$xmyjhejaffffasjepptttbpejsffffffzuxymmml                                   ",
"                                        kufsjazM5+6g$yyaehheafffffasjeeeeeeeejsaaaazuxykmkm5                                   ",
"                                        kufsjjaxM5446wyfhbpheaffffffffsssssssjjssafuxykmmMl5                                   ",
"                                        ufsephhsxMl556xzhtbpheafzzzzzffffffaassehpsxykmmkl5                                    ",
"                                       kufshbrtpjNxml5wujbtbpesafzxxxuuzfffffassptpsummkml5                                    ",
"                                       ufsepbtttpjNxM5+xsprtbejNzxyyyuuzzffffffashejsukkl55                                    ",
"                                       ufshbttttbhjNyl+waprrbhjauxkkyuuzzfaaffaaaseNfauml55                                    ",
"                                      kfsepbttttbheNzy45fhrrthjfxkmwkyuzzfssNasjeeeBjuxk55                                     ",
"                                      ufsebtttttbheNful+ujrrtpjfxkmmwkyuzfassNjjepbBBjzy5l                                     ",
"                                      fsepbttttbbhjNNzw+wNbtbpefxkmmmwkxuzfaassjeepbBrjulm                                     ",
"                                     ufsepbbtbbbhesNfzw+5zjbbhefykmMMMwkxuzfasssjeepbtrjm4                                     ",
"                                     fsshppbbbphejNNfNwg+wzseejszykmllMwkxuzffasNjeepbtVj+                                     ",
"                                    ufsehphhhhhejNNNfwggg5MfasssfzykM5lMwkxuzffassjeepbtVj                                     "
};
