/* XPM */
static char *result[] = {
/* columns rows colors chars-per-pixel */
"128 128 91 1 ",
"  c #070C15",
". c #0A0E17",
"X c #0B0F18",
"o c #0E1219",
"O c #13171D",
"+ c #15191F",
"@ c #171C21",
"# c #181D23",
"$ c #1B2126",
"% c #1E252A",
"& c #20272C",
"* c #232B2E",
"= c #252D31",
"- c #273032",
"; c #2E3331",
": c #2F3836",
"> c #2F3A3B",
", c #333937",
"< c #333B3B",
"1 c #37413E",
"2 c #3A423E",
"3 c #374344",
"4 c #3B4543",
"5 c #3F4845",
"6 c #404945",
"7 c #454D49",
"8 c #46504A",
"9 c #4A524D",
"0 c #4D5650",
"q c #4F5A52",
"w c #545D55",
"e c #595F51",
"r c #555F59",
"t c #566056",
"y c #5C6356",
"u c #566059",
"i c #5E665A",
"p c #5F685C",
"a c #60675A",
"s c #646A5C",
"d c #686D5E",
"f c #6B705F",
"g c #71745E",
"h c #5F6860",
"j c #666D61",
"k c #686D60",
"l c #6C7162",
"z c #6D746A",
"x c #717565",
"c c #767966",
"v c #797A67",
"b c #727669",
"n c #767969",
"m c #7B7D6C",
"M c #777C71",
"N c #7E7F70",
"B c #7E826D",
"V c #7D8072",
"C c #81836E",
"Z c #838473",
"A c #878876",
"S c #8A8977",
"D c #878978",
"F c #8C8C7A",
"G c #908E7C",
"H c #8F907C",
"J c #92927E",
"K c #98937E",
"L c #969482",
"P c #9A9684",
"I c #9D9A86",
"U c #9E9B89",
"Y c #A09B87",
"T c #A19C89",
"R c #A3A18E",
"E c #A8A38D",
"W c #A6A591",
"Q c #AAA794",
"! c #ADAA96",
"~ c #AEAB98",
"^ c #B2AE97",
"/ c #B2AE9B",
"( c #B9AF99",
") c #B6B29E",
"_ c #B9B39E",
"` c #B6B2A1",
"' c #BAB5A1",
"] c #BEB8A4",
"[ c #C0B7A5",
"{ c #C1BBA6",
"} c #C3BCAA",
/* pixels */
"dsjdssjspajyapppadapddsaakssspyyaaajaajpssdspppspsppspppppajppppppassppapaasiiiiyeiaiaaajajpsaytpapdpyapspaaaaipipyyeayaaapaayti",
"jdsddjsdaaappaajajaapdjpjppdppyyppddaadsppssppppppppdsssaapaapppppaaspppsaipaityaaayaasaasspaappapppppapaaaayapiaaiyapaaapaapyyp",
"jjsskjkkpasdaajaajjaaaspdskjspsaaadjljjdsjsjjpppdspssjjjjjapaasaaajasskpsdpsaiaasssyajjasdajaaapiaasasaaaassaasppasapppjdsaaaapa",
"kljllklkdlljldljjkdjaajdsdskjdddjdjjjjjjjsdkjlsssjkjjdjdkkjjdsjjljjjkkksssddddddsddddkkkjjdjspdsdajkfssdssdddddsddsfsjsjddspdfaa",
"lllklllllkllkxllllkidfddjllllllllllllllllllljlllllllldlllllllljllllllllldklflddflkxkllklkdaddsdjkdllddjdsldjkdjjdddslllhdfdfdsfa",
"llxzlllllllxxlxkllladllflllllllllllllllllllllllllklllzlllllllllllllxdzlklfadllllkkkxkllllddddlflllllfflllllllljj__]))'''')'')_]_",
"xxxxxxxxlxxlxbxxxzxxlfllzxxxxxzzzxxxzxxxxxxxzbxxlzxzllxxxxzxzzxxzxxxzxxxxlsfxllfxlkxbxbllllldllllllxlfllxxlllllyWRRRRRRRRRRRRRRR",
"nxbnxbxlkxbnnbbxnbnxzxxzxcbbbbxxxnbxbbxzzxxxxbbbxxllxxxbxcxxcxzbznnxxxbbxcxlxxxzxbbxbbxlllxbljllxxxxxzxxzbbbbxxrWRWRWRRWRRRWRWRR",
"nnnbnnbxxxnnnncnnmbcnnnnnmnnnnnnbnnnnnnncxxxbncnxnxxxnnnnbnnnnnnnnnnnnmnnnnnnnbxbcxnncbbxxxnllxbnbxnbnxzxnnnnnnuWTWWWTWWWRWWRWRR",
"BmmBnmmmnmnmmmxnmmnmmmMnmBmmmmMmmmmmmmBmmnmmmnmmmnnmmmmmmmmBmmmnmmMmmNnmmnmmmmnnvvvvnMcvnmnnnnmbmnmBbmmmBnnmmnnsWWWWQWWQWWWWWWWW",
"VVVBmBmVmNNNmmmmmNNmnmNmMVZZBZZZZZNZVVZBmmNZNmBVBBBMmmmVMmmVVBNVVmZVNZNNNNNBmNmmNmvNvVVNmmBmmVmVmVMBVBmVmVNmmMmj9990990988888899",
"ZZZVDZVVZZZZZVZVZZVNmZVNZZZZZZZZDZZZZZZDZZZDZZZVVVVVNmZVBVmVZVZZZmZZZZVAZZZVVVZNVZNNZZZZZZZVZVZVVZZVZVVVVZZZZVZl8<<<<<<<11111111",
"SDDDZDZDZDZFZDDDDDZZNZZZZDZDDDDDZDDZFZDDZZDDZZFDZZZDBZZZZZVZZFZVZZZADAZZZZZZZZAZZZZZAZZZZZZZZZDZZDZDDDZDDDDDZZZNlkkkkkkkjjljdkkl",
"FFDFFSFDFFFFFFFFFFFFDAADFFFDFFFFDFFFFFFFFFDDSSFSDFDZZSDDDZDDFFDZZZZFDFSSSFDFDZAZSDZSZADAFDDZDDFFFDDDDFDDFFFFFFDZDDZZDZFZDDDDASFD",
"FLFFFFGFGFFFFFFFFFFFFLFFDFFFLFFGFFFFFFFFFFGGFGFGFFFDFDFFFFFDFFFDAFFFFGFFGGFFAFFFFFSSFFFFDFFDFHHHHFFDFFHFFFFFFFFFFDFSDDDFFFFFDFHF",
"JHLLLHLLLFLFLLLLLLLLFLLFFLLLLLLLLLGFHLFFLLGLJFJGHLHLJLLFLFLLLHLLGGGGLGFGAGFGGFGGGGFFFGGGGGFLHHHJHLLLLHLLJLFLLFLFGGGGFGFFFLLFFHFH",
"oooooOooo#OO@Oo@O@OoOOOOOO@OX@OXOOooOOOOOOOOOOOO@@o@OoOoooOOooOOO ..    .                                ..  . .                ",
"O}}}}}}}]}]]]}]]}]{[[{]{]]}}}}[[}'((]_[[}}[{}[]{]}]}]}}[}}}}}}{_#;2656664426666666565556555555555565555566466644656666666655556X",
"oUUUTTUURUIUUUIUUUUPPUIUUUPUUUTUILGKKPIPIUIIIIPUUUUUPUUPIIIIYUUzO5rwwrwwuwwuwyrrwrrrrrrwuuuuuuutruuurruuwrruwrwrrrrrywrrwrryrrrX",
"oRRRRRRRRRRRRRWUTTYYUTUUUUURWUWTRYYPYYYYUUUUIUUUIWRRUTWURRRRRRRnowNNNNNmNmBmNvmNNmNZVmmZVVVVVVVVMNVVVZVVMZZVvmZmmNNNmNNNNNmNmmmO",
"oWWWWRUUUURUURUUUUTUUUUUUUURURRUULPYUUUUUTYUITTTUUUUUUUUUUREWWRnojPPPLLLLLLLPLPPPLPPLPPPILPIUPLPLLPPLILIPLILLLPLLLKGLLLLLLLLLLLO",
"OQWWQSZSDDDDDVZZmZZZZZZNZZZZZDDDDVBmVDVVZDmmZZZZZDDZDDZZZDRQWQWMOzRRWLVZVNmmZVZZVZVVDZVVVVVVVVVVZZZVBZZVVZVZZZVVmNNNZZNNNMLRTTU@",
"o!!!!z#@@oo@OOOO@OO@@OOO@OOoOOOO@oOO@oOOOOOOOOOOOO@oOooO@o!Q!!~VozWQQW@OOOOOOOOO@OOOO@@@OOOO+OOO@O@@OOOOOOOOOOOOOOOOOOOOO@RQQWW@",
"@~~~~x$oOOOOOOOOOOOo@OOOO@O@oOOOOo@o@OO+OOOOOOOOO@o@OO@@o@!!~~~Zoz!~~!OOOOOOOOOOOOOOOoOOOOOOOOOOOo@oOOOOO@OOOOOOOOOOOOOOOoQQQWW@",
"o~~//n$@OOOOOOO+OOOOOOOOOO@OOOOOOO+OOO+OOOO@@OO@O@@OO@OOOO/~/~~D+z~///OOOOOO@OOOOOOOOOOOOOOOOO++OOO@OOOOOOOO@OOOOO@OOOOO@oQ~~~~O",
"@)//)b#OOOO#@##@#@######@@##@@@@##@#+#@#@@@#@@@#@@@@@@@OOO///~~DOM////OOOOO###@@@@@@@##@@@@@@@@@@@@@@@@@#@#@@@##@@@@@@@Oo@~~~~~O",
"o)///c$OO+@######$#$####@#######$###$###@@%$@@#$####@@@OOO)////F@z////OOOO######$$$$#$##############$######%#########@#OOO///~~+",
"@``))m$OO+@@##$$$$$$$$$$##%#$$%#$$$$$$$$%##$$#$$#$$$#@@O@O)/`/`LOM/`//OOOO#####%$$$$$$$$$$$$$$$$$$$$$$$$$%###$$%$$$$#@@O@O////(#",
"O''``m$OO+@@$$$$$$$$%$$%%%$$$$$$$$$$$$%%$%#%$$$$%##%#@@OOO`_``)JOM````OOOO@@###%$$%$$$$$$$$%$$$$$$$$$$$$%#%%##%#$$$$##@OOO`/__)#",
"O`'``m$O+@@#$$$$$%%$%%%###%%%$%%%%$$%$$%%$#%$$%$#%&###@@OO''```J@M````OOO###%#%#%$%%$%%%%%$%$$$%$%%%$%#%&#%#&%$%$%%$###OOO``_`_#",
"O`'`_m$O+@@@$$%%%%%%%%%%&%%&%%%%%%%%&&%%%%&&&&&%&&#%#@@OOO`'`'`JOM``''OOO#####&&%%%%%%%%%%%%&%&%&&%*%%%%&#%&&&$&&%%####OOO`'```#",
"O_'__m$OO@@@$$%%%&%%%%%&%%&%%%%%%%%%%%%%%%%%$&%&%&&##@@OOO''`''JoM```'OOO#@##&#&%%%%%%%%%%%%%%%%%%%%%%&%&%&&&&%&%&%###@O@O'''`)#",
"O'`'`N$OO++#&$$&%%%%%%%%%%%%%%%%%%%%%%%%%%%%%%%%%%%$@##OOO``'`'JOM'```o+O@###%$%%%%%%%%%%%%%%*%%%%%%%%%%&&%&%%%%&%%$##@+OO`````+",
"O`''`m$O++$+$$$&%%*%*%&%*%%*&&&%&%%*&&&%&&%&*%*%%&%$##@OOO``')`HOB//``++O@##$$$&%%*%%*%%*&%*%%%*&&%%&&%&%&%&%&&%%&$$##@+OO`````+",
"O`(_(n#O++####$&%%%%*%%%&%&&%&&&&&&&&&&&&&&&&&%%%%$$$#@+OO``)))FOn//``o+O#@@$%%&%%%*%%%*%*%%%*%%&&&&&&&&&%&&&&&%%%%$$#@OOO`````@",
"O)//^c&++#+$&&#&%%=***=********%***********&**%%%%$$$#@+OO`~///SOM////++O##@#%#%%***************************&&%%%%$$$@@+OO~`///@",
"O////x$+O+###$&&%%*********************&*****&&%%%%$$#@+OO)^///DOz/)~~+oO#@#$%%&%*%***%*************&*&=****&&&%%%$$$@@O++/~//~$",
"O///^x#O+$+#&#&&%*%=*********&*********&*****%&%%&%$###+OO!))~/ZOz!/~~++++@##%%&%%%***********&********&*****&&&&%$$$#@OO+~!!!!+",
"O!^!!k#+O#+$$#&&%%****=*******==*=***=*=******&%%%$$$##OOO!~!!~ZOl!!~~OO+@@#$%&%%%**===******--******==**=****%%%%%$$#@+O+!!!!!O",
"OWQ!Wd$+O#+#$$&$%%*****=========*===*==*=******%&%$$###OOOWQWWQBOzQQWWOO+@##$#%%%***%==*-*******====*====*****&%%&%$##@+OOW!WQW+",
"OEWEYa$OO#@#$$%%*%-%-=*=----*--*=--=---===****&%%%%$$##OO+WWWWWnOzRRWROO+@@#%$&&%*****=*-------------=--===***&&%%$$$##OOOWERRRO",
"ORRRYa$+O#@#$%%%%%%--%*=-------;---=--==**&**&&&%%%$###OO+RRRRRxOhRRUROOO@@##%%%%%&****=-------------=--==***&&%%%$%##++OORURRRO",
"ORTUYy++O+$#$$%%*%%-%*--***-**;*==*=======***&%%%%%$###O+OIUIUIlOjUIPLOOO@@@$$&&%%*****=-******-===*=**=****&&&%%%$$##@+OOUPIUIO",
"OIYLPw$O##+$$$%&%%%%-%%--**--***=====*=*=***%*&%%%%$####OOIIIIIjOjIPPLOO@@$$%$$&*%%&****-**;**-***==*=*==***&&&%%*$$##@@OOLPLPJO",
"OLPHLw$O@@###$$%%%%%%=*****-****&==*==&=&&&*&%%&%%$$@$@@OOLLKKPyOaJJJJOO+$+@#$$%%%&&&**&******%;*=*=*=*****&&&&%%%%$###@OOJJKJK+",
"OLKKJq$O#@##$$$%%%%%%%%**%******=&=***=*=*&&%%%%%$$$@@@@+OLHHJJiOyKKGSOO$+@@$$$%%%%%%&&******************&&&%%&$%$$$##@#+OJFJJHO",
"OJKJL9#@@@@##$$$$$$%%%%*%*%%***%&%&&&&&&*%%%%$%$$$$#@$@@+OJHJJHwOyKASSOO+@+$#$$$%$$%%&&&%*%*%%*%%&&&%&&&&&%%%$$%$$$@#++#+OFFSHHo",
"OFHFF8$@@@@###$$$$%%*%%*%%%*%%%*&&&&&&&%%%%%%$$$$$##@@@$OOSHSSFeOuSSCFOO$+@$##$$$$%%%%%&%*%%%*%*&&&&&&&&%%%%%$$$$$$@####OOAAFSSo",
"OASFS7$O#@##@##$$$$$$&%%%%%*%%%%%&&%%%%%%%%$$$$$$$$@@@@@OOZAAAS9OtZBCCOO#####$#$$$$$$*%*$$*$%*$%%&%%%&%%%%%$$$$$$##@+$+$OOCAZZAo",
"OAAAA6$O@@@####$$$$$%%%&%%%%%%%%&%%%%%%&%%%%$%$$$@$@@@@@OOCZCCC8OqCmvCOO#+#++##$$$$$$%$*%*%%$*%%%%%%&%%*%%%$%$$$$###$+@+OOZBCCCo",
"OAAAC5$O@@#####$$$$$$&%%%%%%%%%%%%&&&%%&%%%$$$$$$@@@@@@@OOCCCCC7oevBBCO@$$+#+#$$$$$$$$*$%%*$*$*$%%&&%&%%*%%%$$$$$###$+#@OOVVCCCo",
"OBCBC2$O@#@+###$$$$$%%%&*%%%*%%%%&%%%&%&%*%$$$$$$$@$@$@@OOBBCCC7OqCvvmOO+++##$+$$$$$$*$*%%*%$*$*%&$&%%%%%%%%$$$$$###+@@@+OBBvvg.",
"OCCCC2$O@#@#@$$$$$$$$%%%%%%%*$$*%%%%%%%&*%%$$$$$$@$@@@@@+OBvvmc6OeBBvBO+$+$+$##$$$$$$%%%%*%*%%%%&%%%*%%%%%%%$$$$$#####@@OOvvvgx.",
"OvBCB,&+@@@@@@@$$$$$$%*%%%%%$$*%%*%%%%%%%%%%$$$$$@@@@@@@+OvvBmB5O0gvvvOO+#+#+##$$$$$$%%*$%%%%%$*%&%*%%%%*%%%$$$$$$##@@@#OOccfggo",
"OBCvB<$O@#@@##@$$$$$%%%%$%%%*%$%%%%%%%%*%%*$$$$$$@@$@@@@OOgcccv4OqgvvBO++#++###$$$$$$*%%%*%%%%*%%*%%%&%%%%%%$$$$$###@@@@OOcgddf.",
"OvvBv<$O@@@@##$$$$$$$%&%*$*%%%*$%%%*%%%%%%%%$$$$%@$@@$@@OOcgccv4O9vvgvOO######$$$$$$$%%%*$$*%%%%%%%%&%%%%%%$$$$$$####@#@@Oxggxgo",
"OvvBv,&O+#+###$$$$$$$&&&$&%%$*$*%%%%%%%%%%%%$$$$%$$@@@@@++ccvcB2OqccvvOO+#@@@$#$$$$$%%%%%%%%%%*%%%*$*$$*%%%%$$$$$####@##@Oxxgxx.",
"OBBvB,$O#+$+##+$$$$$$&&$&&%%*$*$%%%%%*%%%%%$$$$$@@$@@+@@+OcBvvv2O0ccBvOO@##@@##$$$$$$%%*%*%%%%%%$*$*$**$&%&$$$$$$###@+##@Oflxxgo",
"OvvBC,$O+#++###$$$$&$&$&%%%*$**$%%*%%%%%%%%%$$$$$@$@@$+$OOBcvmv2O9cccvOO@@@@###$$$$$%%%%%%*%*$%%*$%%*%%%%%%$$$$$$###@##+OOlcccx.",
"OBCCC<$O##+$##$$#$#$$&&$%%%%*%$*%%%%%%*%%%%%$$$$$$@@@@+@OOcBBvB4OevBnBOO@@@@###$$$$$$*%%%%%$*%%%$**$$%$*%%%%%$$$$$#@@@+$@omcccc.",
"OBCCC,&O##@@###$$$&#&&$&*%%*$*%%*%%*%%*%%%%$$$$$$@$++@@@OOBBBBC5OqBgBvOO@#@@@##$$$$$$%$*%%%%%%%%%%*%*$*$&%&%$$$$$$$+##++OOvvmcvo",
"OCCCA2$O+#@@###$$$#$#&&&%%$*%$$*%%%%%%%%%%%%%$$$%@$$+$+$+OBZBCC6OqCCCCOO@#@+###$$$$$%$*$%*%%%%%**%$$$*$*%%%$$$$$$@$+#+##OOBmmBvo",
"OACSA2&O#@@####$$$$&$&&&%*$%*$*$%*%%%%%%%%%$$$$$$$$@@++@OOABZZZ7OtCACC+O@@##+$#$$$$$$*$*$*%*%*%%%%%**%%*%&%$$$$$$#$++#@#OOCCCCBo",
"OCZSA6$O@#@@@#$$$$$$&$&$%%%%$*$*%%%%*%%%*%%%$$$$$@@@@$$+OOAASDS8OtCSAAO+@@##+$#$$$$$$%*$*%%$%%%%%%$*$$*$%%%%$$$$$@$#+#@#@OZZAACo",
"OSAZL5$O@@@@###$$$$$%*%%%%%%&%&&%%%%%%%%%%%%$$$$$##@@@@#O+SHFFF0OtAFDDO+@@@@@#$$$$$$%&%&%%%%*%%%%%=%%%%*%%%%$$$$$###@@@#OODFZZAo",
"OHHHL5$+#@#@###$$$$$$%%%*%%%&%%%%%%%&%%%%%%$$$$$$###@@@@O+HJJJFqOyFFHHO@@@@@##@$$$$$$%%&%%&%%%%%%%%%%%%%%&%%$$$$$###@##@OODDHHHO",
"OJLHH9$O@@@@###$$$$$%%%%%%%%%%%%&%&%%%%%%%%%$$$$$$#@@@@@+OJJJJPtOpFJJJOO@$@@$@$$$$$$%&%%%%%%%%%%%*%%%%%%%%&$$$$$%###@@@@O+LLJJHo",
"OLLLLq%O@@@####$$$$$$%%%%%%%&%%%%%%&%&%%%%&%$$$$$##$#@@#OOPKPKLuOsJKKKO@@@@@+@$$$$#%#&&%%%%%%%%&%%%%%%*%%%%%$$$$$###@##@OOLLLLLo",
"OIIIRw$O#@@@#$$$$$%%%%=%=%*%&&&&*%&&&&&&&%%%%%$$$$$@##@@OOIUIIIkOsIKPIOO@@@#$$$$$%$%%%&&**%&&&&&%%%%*%*%&%%%%%%$$$#####@OOIIUUUO",
"ORRRRu$+@@@##$$%%%%%%%%=*%==&==&**********%&&&%$$$$$##@@++IRYIRd+lPIURO+@@##@$$$%%%%%&&********&=*=****=*&&%%%%%$$#$##@@+ORRUUYO",
"ORWWWh#+$@##$$%%%%%*%***=%%=&&==*****===****%%&%%%$$##@@++EEWEElOlRRREOO@@##$%%%%&%&&***********=*****=*****%%%%&$$$###@+ORWWERO",
"O!!!~h%O@@##$$%%%%%*=%============*-*=*=*****&%%%%$$$#@@+OQWWQRxOlWWQQOO@@@#$$%%%%&****=**=====*===*====*=****%%&&$%$##@+OQQWWWO",
"O^^/^l$O@###$$%&*&&****=-=----------=--==*=**&&%%%%$$@$++O!!!!!mOxQ!QQ@o@@@#$$%%%&&***=*--==---===------=*=*=%%%%%%$$@@@+O!!!!!+",
"+^^))l$@@###$$%%%&&**=*-----=-----------===***&%%%%%$$$+OO!)^^!BOb!!)~O@#@##$%%%&&&***==--===--------==--***=%*%%%%$$$@@+O^^~/~@",
"O)))`b$@@@#$$$%%&&***=*=---=------------=*****&&%%%%$@+@+O))^^^AOn)///O@@@@#$%%*&&*&*===----------------=***%=%%*%%%$#@@OO/)///$",
"O)))`m$O@@##$%%*&&****===------=-=-=--=-*=**&**&*%%%$$@@OO)))))Som))))O@@@$#$%%%&&****=*-=-------------===**==&=*%%$$#@@OO`))))+",
"O]'''B$@@@##$$%%%&****==-----=----------==****&%&%%$$@@@OO])__)F@V'```OO####$$%%&&=*&===-----------=----==****&%%%%%$$@@+O''))]$",
"O]]]}B$O@@##$%%%&&*****=--=-=--=----=---*=****&%&%$$$$@@@O_{{_)FOV]]']O@####$$%*&&&==&==---------=--=---*=****&%%%$%$@@@++]]]]'+",
"O}{{]C#O@@##$%%&%&&*&====-------=--=----*-****&&%%$$$@@@OO_{{_]H@V']]'OO@@##$$%%&&==&===------=-=-------==****&%%%$$$#@@OO]]]]]$",
"O{{}{D$O@@##$$%%&&***=*=-------=----==--*-****&&&%%$$$@@O+{{_{{KOV]]]]OO@@##$%%&&&&&&=----=----=--------==****&%&%%$$@@$OO{{}]]@",
"O{}{{S#O+@##&#&&%&***=*=--=-----=-------===&**&&*%$$$##OOO]]]{{KOM'{{{OOo#@##%%&&&**&=*=-----------=----===****%&&$$##@++O}]]}{@",
"O{{{{S$O+@###&&&&&*&*===-----=--------=-====**&%%%%$$#@+OO}}{]{YoD}}{{OO@@@###&&&&***=*=---=--=--------=**=***%%&%%$%##OOO}}}}}@",
"O]]]]C#O++##$$$&%&*&&==*--=----=--------===&**&%%%$%###O@O]]{{]POV]}{{OO@@@#%%%&&&*****=--=--=----------===&**&%%&#%##++OO]}]}]@",
"O]_]]C$+++@#$$&$&%*****=----=--=------==&==&&*&&%%%$$##OOO]]]]]K@M]]]]OO@@@##%%&%&*&*=*=-=-=---------=-=******&%&%%$##@+OO]]]]}@",
"O((_(C#+O@##$%&&%***%========&*==========*****&%%%%$$#@@Oo'''''JOM''__OO@@@@#%%&%&****==*==============*=*=***&%%&%#$#@+++`````@",
"+(^^)g$++@@#$$$&%&=*==&==***=======&&======***&%%%$$$#@OO@)))))FOm/))/OO@@@@$$%%%&*&&=*==*=**==*====&===*=****&%%%%$$#@+++'````@",
"O^!^Ef$O+@@#$$&&%%%==%*=======*=*=======****&&&%*%%$@#@OOo)))^^COb!!^^OOO@##$%%%%&*%***=*=*==*=*==&==*==****&&&&%&#$###++o/~/~~+",
"OWEEEf$O+@##$$$&%%&%%=***====*=*=&=====&****&&%%%%$$###OOOWQW!QB@bWWWWOO@@@@$$%%%%%%*****===*=*-=&====*=****&&%&&%%##@@+++QQWWW+",
"+EKKIi$O+++$$$$$%%%%%&&*%-***-*-&***&*&**&&&%%%%$%$$###OOOIRRRRlOjUTRROOO@@@#$$%%&%%&&&**&******&=*******%&&%&%#%$$$@@@O+oRRRRR+",
"OYKKKe$O+@@+@$$$#%%%%%&&%%%-%%%%&&&&&&&&&%%%&$%#$$$####OOOIPIIIzOjPIILOO@@@@#$$$$$%%$&&&&&&&*%%*&&*&&&&&&&%%%%%$$$$#@$@O++IILIL+",
"OHKJKq$O++@$##$$$$$$%%%%%%%%%%%%&%%%%&%&%%%%%$#%$##$+#+OOOKJKJLpOpLLKLOO@@@@###$$$$$$&&&%%%&%*%%%%&%%%%%%%%%##%#$#$@@@$OooLLLJH+",
"oSSFF9$OO$@@@@@@##$$$$%%%%%%%%%%%%%&%%&%%%#$#$##$#++#+$OOOFHHHFt@ySFGFOOO@@@@#####$$$$$$%%%&%%%%%%%%&%%%%%###%####@@@#+O++FDHFDO",
"OCSSS7#OO########$$$$$%$*%%%%%%*%%%%%%&%%%%#$$###+$++##OOOAADDA9orADAAOOO@@#@#####$$$%&$%%%%%%%%%%&%%&%&%#%%$$######$+@OOOZZDAAO",
"OCCCC2$OO#++@#####$$$$%%%%%%%%%%%%%&%%%&$%#%$$##$#+$$#+OOOZBCZC8owCVCCOOO@@@@#####$$$$$$%%%%%%%%&%%%%&%%#%#%$%####@@++$OOOVBBVBo",
"+vBvB2$+++###$####$$$$%$%%*%*%%%*%%%%%%%$%$#$$#$#+$#++#OOOBBmvB6@0mmmmOOO@@@@#####$$$$%%%%%&%*%%%&&%%%%%#%$$$$######+$@OO+BncBB ",
"Ovvvg1$OO++#++####$$$$%%%%%%%%%%%%%%%&%%%#%$$$##$#+++$OOOOcccvv2O9ccccOOO@@@@#####$$$$$$&&%&%%%%&%%&%%&%%$%$$$####@@+$+OOOcnccco",
"Ogxcc,$OO@@@@@@$@@$$$$$$&&&&&&&$%&%%&&%&%#%#$$####O###OOOOvcxcc2O9lcxgOOO+#@+######%%#%#&%&&%%%%%&%%%%%%%#%#$$######@@OOOOxxxxx.",
"Ofgcx,$OOO@@@@$@@$$$$$$%%$$$$$$%$%%$%##%%##%$$#######OOOOOxgxxx<O9xxxgOOOO+##+####$##%#%$$$$%%#%$$%#$%#%%##%$$######@@OOOOxxlxx.",
"Odgxx:$OOO@@@@$@@$$$$%$$$%$$$$%%$$%%%%#%%$%##$########OOOOxxlxx1O0xlxxOOOO#+#+#####%%##%$%$%%$%%%$%%%#%%#%$$$$########OOOOzlxxlX",
"oggcg,$OO@@@@@@$@@$$$$$%$%%$%%$$%%#$#%%%#$%$$$######O#+OOOxxxxx1+7xxxgOOO+#+######&##&%%$$$%$$%%%$$$%%%#%%$$$$#####O##O@OOxxlxxX",
"ogcgv,$OOO@@#@##@#$$$$%%%$$$$$$$$$%%%%%#%%%#$$####@@#OOOOOlxxcc4O9gxvgOO++#+@##@##$$#%%#%%$%#%%#$$$%%%#%%$$$$#####@@@@OOOOxxcxx.",
"Ovvvv1$OOO@@@@@###$$$$$$%%$%$%$%%$$$##%%%#$#$#####@@##OOOOxvccm6O0xcggOOOO##@@#####$%##%$%$$%%#%%%$$#%%%$$$$$#######@@OOOOncnnn.",
"OvvCB2$OOO@@@@#@@##$$$$$#%%$$$$%$$%%%%$%#%#%$#####@##@OOOOvmvmm6+0vmvvOOOO@#@@@@###$$$#%$%%$#%#%%#%%$$$%$$$$$#####O#@@oOOOmmvmmo",
"OZZCA6#OOO@#@@@####$$$$$#%$%%&$$%$$%%#$$%#%#$#####@@@#OOOOZZZAZ8OqCCCvOOOO@@@@#####%$#%#%$%$%#%%%%%$$%$$$$$$$$######@@OOOOZZZZNO",
"OASSS8$++O+++####$#$$$$$%#$$$$$$$$$$$$$%$%$$%###@#@@#++OOOZSZSZwOeNZZCOOOO#@@######$$$$&$$$$%$$$#$%$$$%$$$$$$######@@@OO@oZZDDZO",
"oJGGG9++OO$+#######$$$$$$$$$&$#&$$$%$%$$$$$$$##@@#@@@++OOOGFSFFuorFSGSOOOO##@@@####$$$%#$$$$$$%$%##%$%$$$%$$$#####@@@@OOO@FDSFSo",
"OLLKKw$OOO+#@+$####$$$$$%$$$$$#&$$$$$$$$$$$$$#@@#@@#@@OOOOKJLLGpOrLGGGOOOO##@@#@###$$$#%$$$$$$$$$$$$%#%#$$$$$#####@@@@OOoXLSGGLo",
"oUIIPy+OOO##@@@###$$$$$$#$$#$$$#$$$$$$$$$#$$$$$@##@@@OOOOOILPPPkojLLLPOOOO@#@##@###$$$$#$$$$$$$$$$$$#%#%$$$$$#####@@@OOO@OLLLPPO",
"OITUUp$OOO++#++$##$$$$$$$$$$$$$$$$$$$$$$$$$$$$$#####@@OOOOUTILUzojUUYTOOOOO####$##$$$$$$$$$$$$$$$$$$$$$#$$#$$$$$####@@@O@oPPUIUo",
"OTTRWd$OOO+@+$###$$$$$$$$$$#$$$$$$$$$$$$$$$$$$$$####@@OOOOWWWTRnokUWTWOOOOO#####$$$$$$$$$$$$$$$$$$$$$$$%$$$$$$$$####@@o@@@RRRUU@",
"oWWQWf#OOO$@@$#$$$$$$$$$$$$$$$$$$$$$$$$$$$$$$$$$#####@@OOOWWWTQN@lTQWWOOOO##O##$$$#$$$$$$$$$$$$$$$$$$$$#$$$$$$$#$###@@o@o@RWRRW@",
"o!~!!z#OOO++@$$$$$$$$$$$$$$$$$$$$$$$$$$$$$$$$$$$%###@@@OOOWWQQ~ZOzQQ!!OOOo@###$$$$$$$$$$$$$$$$$$#%#$$$#%$$$$$$$$$###@@@o@oQQQQWO",
"X/~~~v#OOO@@###%$$$$$$$$$$$$#$$$$$#$$$$$$$$$$$$$$$$##+OOOO~!Q~~AXl~~~~@o@o@@@#$$$$$&#&$$$$$$$$$$$$$$$$$$$$$$$#$$#$$#@@OOOO!QQQQ@",
"oQ~/~v#OOO@@##%#$$$$$$$$$$$$$$$$$%$$$$$$$$$$$$$$$$$#+#OOOO!~!~~FOz~~~~o@o@@@@#$#$$$###$#$$$$$$$$$$$$$$$#$$#$$$$$$$$##@OOOO!!//Q@",
"o/~(~l#OOO@@###%#$$$$$$$$$$$$$$$$#%$$$$$$$$$$$$$$&$##+OOOO~~~~~SOz~~~~@o@@#@#$$$$$$#&$$&#$$$$$$$$$$$$$#%$$$$$$$$$$$###OOOO^!~~/@",
"oQ~~Qx#OOO@###%#$$$$$$$$$$$$$$$$$$#$$$$$$$$$$$$$##$#$#O+OO!~QQQAOz~~~~o@Oo@@##$$$$$&#$$#$$$$$$$$$$$$$$%#$$$$$$$$$$$###OOOOQ!~~Q@",
"oQQQ~x@O+O#@#####$#$$$$$$$##$$$$%#%##%##$$$$$$$$&&+##@+OOOWQWWQVXzQQQQ@o+++##########%##$$$$$$$$$$$$#%#%$$#&$#$$$$###+OOOOQQQQQ#",
"OQQQQl#OOO###############################@##$###+####@OOOOWTTTWNXzWQRRo@O+++##############$##########@################OOO@WWTWRO",
"oRTWTl@OOOOO#O#O################@@@@##@@@#@#@@@@#++#@OOOOOTIPWUnOkUUUU@@O+OO####@@@@##@####+##+#+###@@@@@@###@@@#@@##OOOOOUUUUT@",
"oTUUTa@OOOOOOOOOOOOOOOOOOOOOOOOOOOOOO@OOOOOOOOOO+O+OOOOOOOLLPPPxXjPUUUooOOOOOOOOOO@OO@OOOOOOOOOOOOOOOOOOOOO@OOOO++O+OOOOOOPPPPPo",
"oPLLPr#@OOOOOOOOOOOOOO@OOOOOOOOO@OOOOOOOOOOOOOOOOO@Oo@O@OOLLGLLkXjLLLLO@OOOOOOO@@OOOo@OOOO@OO@o@OOOOOOOOOOOOOOOOOOO@OOOOOoLLLLLo",
"XLLLLq>>,<<<>><<<<<<,<<<<<<<<<><>>>><><<>><<><<<,,<><>>><,DSFGFsOrFGSG3342333333333333443333333344333333434333423333433333DLSFLX",
"oFFSGSPTRERRTTTRRRERRRTERERERRRUTWWTYYYYTUTUUITTTWWTTYUUPYSZAAAwXrZDZSYTYTPYPPPYTTYYLLPYUUYYUUTUUULIIIPPYPPPPLPYPPPPIPYYPPZZAZZX",
"oAZZZZNZVZZSZZNNNZZVVVNSVZVVZNNNmZNvmNNNNNmNmnmVZZVZNmNmNmNNNNN0OqmNNZNNNNNNNNNNVNvvvvvNmNNNmNNVNZBNNNNmNNNNNvvmNNNmNNNNNNNNNNNo",
"oNNNNNNvvNNvvvNvmmmmvNmvvvvNNvlvcmmmvxvnmmxxcvvmmmmmnvnxnccvvvc7X9mcvmccvvvvmnnvvcxdxcxcnxkccvvvnmvnnvvmvccvcccvvnvnvncxcxnnbnno",
"onnnccncvvxgxvbvxvxxvgxxdlgvbkdxcxcxkkccxxxkxxcmnnnvbxllgflxxxx6O9xxxcxlcbxcbklcxlllfgffllxxblknxbbcxcxxccxxzxxcxcxblllflxxxxcxX",
"Oxxxbbxxxxlllxgdlxlldfffflglddsfdfkgddldkxkxfddxxbxxlkdddddxkkx2o9dlllllllllddlllkddsddffgflkkllkllllkllllllklllllllddfkdlklkglX",
"oxxllllkllglllsydlllddgddfffaefdaxkdddfddddkddakxklllddasdkdklf<oXXXXXXXoXXXXXXoXXXXXXXXXXoXXoX..ooooo.oXXXXXoXXo.o.XXXXXXXoXXXX"
};
