/* XPM */
static const char *ZW5uZW15[] = {
/* columns rows colors chars-per-pixel */
"37 37 7 1 ",
"  c black",
". c #750C0F",
"X c #9E1116",
"o c green",
"O c #546D8E",
"+ c #99D9EA",
"@ c white",
/* pixels */
"ooooooooooooooooooooooooooooooooooooo",
"ooooooooooooooooooooooooooooooooooooo",
"ooooooooooooooooooooooooooooooooooooo",
"ooooooooooooooooooooooooooooooooooooo",
"ooooooooooooooooooooooooooooooooooooo",
"ooooooooooooooooooooooooooooooooooooo",
"ooooooooooooooooooooooooooooooooooooo",
"ooooooooooooooooooooooooooooooooooooo",
"ooooooooooooooooooooooooooooooooooooo",
"ooooooooooooooooooooooooooooooooooooo",
"ooooooooooooooooooooooooooooooooooooo",
"ooooooooooooooooooooooooooooooooooooo",
"ooooooooooooooooooooooooooooooooooooo",
"ooooooooooooooooooooooooooooooooooooo",
"oooooooooooooooo       oooooooooooooo",
"ooooooooooooooo XXXXXXX ooooooooooooo",
"oooooooooooooo XXXX      oooooooooooo",
"oooooooooooooo XXX ++@@@@ ooooooooooo",
"ooooooooooooo .XX +++@@@@@ oooooooooo",
"ooooooooooooo .XX OO++++++ oooooooooo",
"ooooooooooo   .XXX OOOOOOO oooooooooo",
"oooooooooo XX .XXX  OOOO  ooooooooooo",
"oooooooooo XX .XXXXX    X ooooooooooo",
"oooooooooo .. .XXXXXXXXXX ooooooooooo",
"oooooooooo .. .XXXXXXXXX. ooooooooooo",
"oooooooooo .. .XXXXXXXXX. ooooooooooo",
"oooooooooo .. ..XXXXXXX.. ooooooooooo",
"oooooooooo .. ...XXXXX... ooooooooooo",
"oooooooooo .. ........... ooooooooooo",
"ooooooooooo   ........... ooooooooooo",
"ooooooooooooo ....   .... ooooooooooo",
"ooooooooooooo ... ooo ... ooooooooooo",
"ooooooooooooo ... ooo ... ooooooooooo",
"oooooooooooooo   ooooo   oooooooooooo",
"ooooooooooooooooooooooooooooooooooooo",
"ooooooooooooooooooooooooooooooooooooo",
"ooooooooooooooooooooooooooooooooooooo",
};
