/* XPM */
static const char *ZW5uZW15[] = {
/* columns rows colors chars-per-pixel */
"41 33 7 1 ",
"  c #000000",
". c #380507",
"X c #4d070a",
"o c green",
"O c #283545",
"+ c #4a6972",
"@ c #7c7c7c",
/* pixels */
"ooooooooooooooooooooooooooooooooooooooooo",
"ooooooooooooooooooooooooooooooooooooooooo",
"ooooooooooooooooooooooooooooooooooooooooo",
"ooooooooooooooooooooooooooooooooooooooooo",
"ooooooooooooooooooooooooooooooooooooooooo",
"ooooooooooooooooooooooooooooooooooooooooo",
"ooooooooooooooooooooooooooooooooooooooooo",
"ooooooooooooooooooooooooooooooooooooooooo",
"ooooooooooooooooooooooooooooooooooooooooo",
"ooooooooooooooooooooooooooooooooooooooooo",
"ooooooooooooooooooooooooooooooooooooooooo",
"ooooooooooooooooooooooooooooooooooooooooo",
"ooooooooooooooooooooooooooooooooooooooooo",
"oooooooooooo       oooooooooooooooooooooo",
"ooooooooooo XXXXXXX ooooooooooooooooooooo",
"oooooooooo XXXX      oooooooooooooooooooo",
"oooooooooo XXX ++@@@@ ooooooooooooooooooo",
"ooooooooo .XX +++@@@@@ oooooooooooooooooo",
"ooooooooo .XX OO++++++ oooooooooooooooooo",
"ooooooo   .XXX OOOOOOO oooooooooooooooooo",
"oooooo XX .XXX  OOOO  ooooooooooooooooooo",
"oooooo XX .XXXXX    X ooooooooooooooooooo",
"oooooo .. .XXXXXXXXXX ooooooooooooooooooo",
"oooooo .. .XXXXXXXXX. ooooooooooooooooooo",
"oooooo .. .XXXXXXXXX. ooooooooooooooooooo",
"oooooo .. ..XXXXXXX.. ooooooooooooooooooo",
"oooooo .. ...XXXXX... ooooooooooooooooooo",
"oooooo .. ........... ooooooooooooooooooo",
"ooooooo   ........... ooooooooooooooooooo",
"ooooooooo ....   .... ooooooooooooooooooo",
"ooooooooo ... ooo ... ooooooooooooooooooo",
"ooooooooo ... ooo ... ooooooooooooooooooo",
"oooooooooo   ooooo   oooooooooooooooooooo",
};
