/* XPM */
static char *result[] = {
/* columns rows colors chars-per-pixel */
"40 40 7 1 ",
"  c black",
". c #750C0F",
"X c #9E1116",
"o c green",
"O c #546D8E",
"+ c #99D9EA",
"@ c white",
/* pixels */
"oooooooooooooooooooooooooooooooooooooooo",
"oooooooooooooooooooooooooooooooooooooooo",
"oooooooooooooooooooooooooooooooooooooooo",
"oooooooooooooooooooooooooooooooooooooooo",
"oooooooooooooooooooooooooooooooooooooooo",
"oooooooooooooooooooooooooooooooooooooooo",
"oooooooooooooooooooooooooooooooooooooooo",
"oooooooooooooooooooooooooooooooooooooooo",
"oooooooooooooooooooooooooooooooooooooooo",
"oooooooooooooooooooooooooooooooooooooooo",
"oooooooooooooooooooooooooooooooooooooooo",
"oooooooooooooooooooooooooooooooooooooooo",
"oooooooooooooooooooooooooooooooooooooooo",
"oooooooooooooooooooooooooooooooooooooooo",
"oooooooooooooooooooooooooooooooooooooooo",
"oooooooooooooooooooooooooooooooooooooooo",
"oooooooooooooooooooooooooooooooooooooooo",
"oooooooooooooooooooooooooooooooooooooooo",
"oooooooooooooooooooooooooooooooooooooooo",
"oooooooooooooooooooooooooooooooooooooooo",
"oooooooooooooooo       ooooooooooooooooo",
"ooooooooooooooo XXXXXXX oooooooooooooooo",
"oooooooooooooo XXXX      ooooooooooooooo",
"oooooooooooooo XXX ++@@@@ oooooooooooooo",
"ooooooooooooo .XX +++@@@@@ ooooooooooooo",
"ooooooooooooo .XX OO++++++ ooooooooooooo",
"ooooooooooo   .XXX OOOOOOO ooooooooooooo",
"oooooooooo XX .XXX  OOOO  oooooooooooooo",
"oooooooooo XX .XXXXX    X oooooooooooooo",
"oooooooooo .. .XXXXXXXXXX oooooooooooooo",
"oooooooooo .. .XXXXXXXXX. oooooooooooooo",
"oooooooooo .. .XXXXXXXXX. oooooooooooooo",
"oooooooooo .. ..XXXXXXX.. oooooooooooooo",
"oooooooooo .. ...XXXXX... oooooooooooooo",
"oooooooooo .. ........... oooooooooooooo",
"ooooooooooo   ........... oooooooooooooo",
"ooooooooooooo ....   .... oooooooooooooo",
"ooooooooooooo ... ooo ... oooooooooooooo",
"ooooooooooooo ... ooo ... oooooooooooooo",
"oooooooooooooo   ooooo   ooooooooooooooo",
};
