/* XPM */
static const char *cGl4aWwtZnJhbWUtMA__[] = {
/* columns rows colors chars-per-pixel */
"50 50 7 1 ",
"  c black",
". c #750C0F",
"X c #9E1116",
"o c green",
"O c #546D8E",
"+ c #99D9EA",
"@ c white",
/* pixels */
"oooooooooooooooooooooooooooooooooooooooooooooooooo",
"oooooooooooooooooooooooooooooooooooooooooooooooooo",
"oooooooooooooooooooooooooooooooooooooooooooooooooo",
"oooooooooooooooooooooooooooooooooooooooooooooooooo",
"oooooooooooooooooooooooooooooooooooooooooooooooooo",
"oooooooooooooooooooooooooooooooooooooooooooooooooo",
"oooooooooooooooooooooooooooooooooooooooooooooooooo",
"oooooooooooooooooooooooooooooooooooooooooooooooooo",
"oooooooooooooooooooooooooooooooooooooooooooooooooo",
"oooooooooooooooooooooooooooooooooooooooooooooooooo",
"oooooooooooooooooooooooooooooooooooooooooooooooooo",
"oooooooooooooooooooooooooooooooooooooooooooooooooo",
"oooooooooooooooooooooooooooooooooooooooooooooooooo",
"oooooooooooooooooooooooooooooooooooooooooooooooooo",
"oooooooooooooooooooooooooooooooooooooooooooooooooo",
"oooooooooooooooooooooooooooooooooooooooooooooooooo",
"oooooooooooooooooooooooooooooooooooooooooooooooooo",
"oooooooooooooooooooooooooooooooooooooooooooooooooo",
"oooooooooooooooooooooooooooooooooooooooooooooooooo",
"oooooooooooooooooooooooooooooooooooooooooooooooooo",
"oooooooooooooooooooooooooooooooooooooooooooooooooo",
"oooooooooooooooooooooooooooooooooooooooooooooooooo",
"oooooooooooooooooooooooooooooooooooooooooooooooooo",
"oooooooooooooooooooooooooooooooooooooooooooooooooo",
"oooooooooooooooooooooooooooooooooooooooooooooooooo",
"ooooooooooooooooooooo       oooooooooooooooooooooo",
"oooooooooooooooooooo XXXXXXX ooooooooooooooooooooo",
"ooooooooooooooooooo XXXX      oooooooooooooooooooo",
"ooooooooooooooooooo XXX ++@@@@ ooooooooooooooooooo",
"oooooooooooooooooo .XX +++@@@@@ oooooooooooooooooo",
"oooooooooooooooooo .XX OO++++++ oooooooooooooooooo",
"oooooooooooooooo   .XXX OOOOOOO oooooooooooooooooo",
"ooooooooooooooo XX .XXX  OOOO  ooooooooooooooooooo",
"ooooooooooooooo XX .XXXXX    X ooooooooooooooooooo",
"ooooooooooooooo .. .XXXXXXXXXX ooooooooooooooooooo",
"ooooooooooooooo .. .XXXXXXXXX. ooooooooooooooooooo",
"ooooooooooooooo .. .XXXXXXXXX. ooooooooooooooooooo",
"ooooooooooooooo .. ..XXXXXXX.. ooooooooooooooooooo",
"ooooooooooooooo .. ...XXXXX... ooooooooooooooooooo",
"ooooooooooooooo .. ........... ooooooooooooooooooo",
"oooooooooooooooo   ........... ooooooooooooooooooo",
"oooooooooooooooooo ....   .... ooooooooooooooooooo",
"oooooooooooooooooo ... ooo ... ooooooooooooooooooo",
"oooooooooooooooooo ... ooo ... ooooooooooooooooooo",
"ooooooooooooooooooo   ooooo   oooooooooooooooooooo",
"oooooooooooooooooooooooooooooooooooooooooooooooooo",
"oooooooooooooooooooooooooooooooooooooooooooooooooo",
"oooooooooooooooooooooooooooooooooooooooooooooooooo",
"oooooooooooooooooooooooooooooooooooooooooooooooooo",
"oooooooooooooooooooooooooooooooooooooooooooooooooo"
};
