/* XPM */
static char * chest_xpm[] = {
"32 32 13 1",
" 	c #999999",
".	c #BBBBBB",
"+	c #000000",
"@	c #FFFFFF",
"#	c #AAAAAA",
"$	c #302C2E",
"%	c #F47E1B",
"&	c #B32D2D",
"*	c #73342E",
"=	c #EEF2AA",
"-	c #E6482E",
";	c #F4B41B",
">	c #A24C06",
" . .. ...  ...+@+@..  . ....  ..",
"..  . ..... .+@.#+@... . .......",
"..... ....  +@..##+@..  .  .... ",
". ....... .+@.##.  +@.. .. . ...",
".. ...  ..+@.#..#   +@. .. . .  ",
"...   .. +@.#. #..#  +@.... ... ",
".  . ...+@.##...#. #  +@. ... ..",
".... ..+@.#..#. #... . +@... . .",
".  ...+@..##. ..#  ..## +@. .. .",
"... .+@.##$$$$$$$$$$$$#. +@.    ",
"..  +@.##$%&&&*%%*&&&%$..#+@.. .",
". .+@.##.$=---*==*---=$.. #+@...",
"..+@.##..$=---*==*---=$.. # +@. ",
" +@.## ..$;&&&*;;*&&&;$#..#  +@.",
"+@..#. #.$;&&&*;;*&&&;$.#  .  +@",
"@.##. ...$%&&&*==*&&&%$ #. # . +",
"@.## . ..$-***=$$;***-$.#  ..##+",
"+@..##. .$$$$$%$$%$$$$$..## . +@",
".+@..##. $*****>>*****$...#  +@.",
". +@.##..$************$.. . +@..",
".  +@.##.$%**********%$ .. +@...",
"... +@.##$;%********%;$. #+@. ..",
".. . +@.##$$$$$$$$$$$$.. +@...  ",
".... .+@.## . . #..##.. +@.. ...",
".  ....+@.##. ..#  ..##+@.... . ",
"... .. .+@.##  ..## . +@.. .. ..",
"..  .....+@..##...#  +@...     .",
". ....... +@.##.. . +@.. .... ..",
".. ..  ..  +@.##.. +@.... ......",
" ..... .... +@..##+@..... ....  ",
".... ....  . +@.#+@. . ... .....",
" .... . .. . .+@+@.. . ... ....."};
