/* XPM */
static char * perso_xpm[] = {
"32 32 14 1",
" 	c #999999",
".	c #BBBBBB",
"+	c #000000",
"@	c #FFFFFF",
"#	c #AAAAAA",
"$	c #341A12",
"%	c #F49B55",
"&	c #FCE159",
"*	c #C5793D",
"=	c #6F3524",
"-	c #EEC39A",
";	c #CBFFED",
">	c #E93939",
",	c #E9F2D5",
" . .. ...  ...+@+@..  . ....  ..",
"..  . ..... .+@.#+@... . .......",
"..... ....  +@..##+@..  .  .... ",
". ....... .+@.##.  +@.. .. . ...",
".. ...  ..+@.#..#   +@. .. . .  ",
"...   .. +@.#. #$$#  +@.... ... ",
".  . ...+@.##.$$%&$#  +@. ... ..",
".... ..+@.#.$$%&&*$$ . +@... . .",
".  ...+@..#$%*&&&&&%$## +@. .. .",
"... .+@.##$%&*&&&&&&%$#. +@.    ",
"..  +@.##$&&&=%&&&&*&%$..#+@.. .",
". .+@.##. $&&%=%&=&&*%$.. #+@...",
"..+@.##..#$&%$%=*%=%&$ .. # +@. ",
" +@.## ...$&$%%%%%%=%$ #..#  +@.",
"+@..#. #..#$-$$--$$-=...#  .  +@",
"@.##. ....#$%;$--$;%$#. #. # . +",
"@.## . ..#$>$%----%$>$..#  ..##+",
"+@..##. .$>>>$$$$$$>>>$..## . +@",
".+@..##. $-$>==>>==>$-$...#  +@.",
". +@.##..$--$=>>>>=$--$.. . +@..",
".  +@.##. $$$>,==,>$$$  .. +@...",
"... +@.##.=$*$>>>>$*$=.. #+@. ..",
".. . +@.##=$==$$$$==$=.. +@...  ",
".... .+@.#==$$$==$$$==. +@.. ...",
".  ....+@.#==========##+@.... . ",
"... .. .+@.##====== . +@.. .. ..",
"..  .....+@..##...#  +@...     .",
". ....... +@.##.. . +@.. .... ..",
".. ..  ..  +@.##.. +@.... ......",
" ..... .... +@..##+@..... ....  ",
".... ....  . +@.#+@. . ... .....",
" .... . .. . .+@+@.. . ... ....."};
