/* XPM */
static char *_ce418c2cc634739f28a98851a1c9603Tku2YykckxI2IOgh[] = {
/* columns rows colors chars-per-pixel */
"32 32 156 2 ",
"   c #5D5C58",
".  c #625E53",
"X  c #64605D",
"o  c #6A655F",
"O  c #6F6B65",
"+  c #766F66",
"@  c #726E6B",
"#  c #747067",
"$  c #74726F",
"%  c #7A766B",
"&  c #767571",
"*  c #797675",
"=  c #7D7A75",
"-  c #77767B",
";  c #7E7E7C",
":  c #827C6E",
">  c #827D74",
",  c #817E7B",
"<  c #7E807F",
"1  c #848076",
"2  c #8A8277",
"3  c #84827C",
"4  c #8A857D",
"5  c #8F897F",
"6  c #7E7F83",
"7  c #7E8283",
"8  c #868584",
"9  c #898683",
"0  c #8C8985",
"q  c #868688",
"w  c #8D8C8C",
"e  c #918D86",
"r  c #9D8F82",
"t  c #928E8B",
"y  c #979387",
"u  c #94928D",
"i  c #99948B",
"p  c #9C988E",
"a  c #8D8E91",
"s  c #8F9190",
"d  c #959492",
"f  c #9A9691",
"g  c #979893",
"h  c #9C9A95",
"j  c #95949B",
"k  c #9D9C9B",
"l  c #A49485",
"z  c #A09488",
"x  c #A19A8D",
"c  c #AF9F8F",
"v  c #A29D95",
"b  c #A19E9A",
"n  c #9EA09B",
"m  c #A6A297",
"M  c #AAA296",
"N  c #A4A19D",
"B  c #AAA49D",
"V  c #ADA99E",
"C  c #B1A796",
"Z  c #B3A896",
"A  c #B4AA9C",
"S  c #9B9BA0",
"D  c #A19FA0",
"F  c #A5A4A3",
"G  c #AAA5A2",
"H  c #A7A8A3",
"J  c #ACA9A5",
"K  c #A4A3A8",
"L  c #ABA7A8",
"P  c #A6AAAC",
"I  c #ADACAB",
"U  c #B2ADA6",
"Y  c #B1AEAB",
"T  c #AFB0AD",
"R  c #B4B0A6",
"E  c #B8B1A7",
"W  c #B4B2AC",
"Q  c #BAB5AD",
"!  c #BEB8AC",
"~  c #AFB1B0",
"^  c #B5B4B2",
"/  c #B9B6B2",
"(  c #BCB9B4",
")  c #B4B4B9",
"_  c #B9B7B8",
"`  c #BDBCBA",
"'  c #C1B8AE",
"]  c #C3B6B4",
"[  c #C1BBB4",
"{  c #C2BFBA",
"}  c #C0BDB9",
"|  c #C3BFBC",
" . c #C1BEBA",
".. c #BEC0BF",
"X. c #BFC0BD",
"o. c #C9C1B6",
"O. c #C3C0BB",
"+. c #C4C1BC",
"@. c #C7C2BC",
"#. c #C7C2BE",
"$. c #C7C4BD",
"%. c #C5C4BF",
"&. c #C4C2BC",
"*. c #C8C3BF",
"=. c #C9C3BB",
"-. c #BDBEC2",
";. c #C1BFC0",
":. c #C4BEC0",
">. c #BEC0C3",
",. c #C3C1C2",
"<. c #C3C3C3",
"1. c #C1C1C0",
"2. c #C6C5C1",
"3. c #C5C5C3",
"4. c #C0C1C5",
"5. c #C0C1C6",
"6. c gray77",
"7. c #C7C7C5",
"8. c #C7C5C6",
"9. c #C5C7C6",
"0. c #C7C7C7",
"q. c #C5C4C2",
"w. c #C8C4C1",
"e. c #C9C5C2",
"r. c #C8C4C5",
"t. c #C9C6C3",
"y. c #C7C9C6",
"u. c #C9C8C4",
"i. c #C8C8C6",
"p. c #CBCCC7",
"a. c #CAC9C6",
"s. c #C3C4C9",
"d. c #C7C8CA",
"f. c #C9C9C9",
"g. c #CACAC8",
"h. c #CBC9CA",
"j. c #CCCBC9",
"k. c #CACCCB",
"l. c #CDCCCA",
"z. c #CDCDCD",
"x. c gray80",
"c. c #CECECC",
"v. c #CFCFCD",
"b. c #CDCFCE",
"n. c #CCCCCA",
"m. c #D2CDC7",
"M. c #D0CFCB",
"N. c #D3CECA",
"B. c #D2D1CD",
"V. c #CECFD1",
"C. c #CCCDD2",
"Z. c #D1CFD0",
"A. c gray82",
"S. c #D0D2D1",
"D. c #D3D3D1",
"F. c #D5D4D0",
/* pixels */
"U [ ( h 9.w k h b / W B p M M : f H = ` Q W %. .( ` ( , t G ] ] ",
"B B / d 9.<.F ^ k h W u I J E 1 4 G O W ( Q W O.`  .J b b 3 9 G ",
"v = @ h 9.<.f.x.L d D.` N ` H 0 = ( p I (  ./  .[ ` J I 2.x._ L ",
"#.Y @ H x.9.k.x.b u 2.M.F I %.u . % 4 B +.e./ /  .t._ k ` ..D.9.",
"e.Y X N j.f.9.V.m > 3 H h f U > p 4 1 G W ` ` <.` <.<.6 ` 9./ ` ",
"H 0 8   d L ^ H G ( Q Q 4 B h i U R h B / ^ 9.;.<.) K q ` f.` L ",
"8 L H N I H w 6 ( ` Y e.b h e B [ Q h t ` F ^ ^ f e f 9 h Z./ w ",
"^ Y ^ ` l.x.~ 7 D.` ` i.b H u B [ ( U f J h 0 k C A ! W w d j j ",
"U | <.^ ` i.T 7 p.f._ f.^ N H B / #.b h ` [ / h W Q W *.I * u H ",
"B H ( / Y ( W 8 ( l.` i.2.k H H / b b W ` Q e.` u  .[ / ^ w I B ",
"i 0 g d 3 G ( 8 b ` H ^ i.O.b b B N ` #.i.2.#.B.( w H h H a w t ",
"h h 9.q.k 4 J F h H h 0 I W u H u ` %.( i.i.9.O.f.0 = h K a q k ",
"* K >.>.k f k d | ^ L ^ L h t ` 0 k 2.<.O.f.i.f.<.L b ` a P ` I ",
"d ..P F N a.^ w 9 ^ ^ _ ` f #.Q / 9 J j.i.i.2.` I F ` d w 6.d.I ",
"B N h W +.( +.O.H 8 I ` d b / [ ` ` $ 9 x.9.9.<.I G m.( 2.f._ $ ",
"B v 0 +.! o.[  . .Y ; u N W U [ / M.L $ 0 / l.` L #.$.p.X.^ k & ",
"x M + ! ( W *.` W O.W , t B ] ] U [ ` k 2.s k k k  .W H f m V x ",
"5 3 o Q / Y / ( ` :.L b b 3 3 G G B I u 9.` I H N 0 W f B U W y ",
"9 #.h L e.` ^ ` } / Y I 9.l.W ^ h , * k L H L I 9 e Y W ( ( v u ",
"o O 4 H #.` ( 2.+.+./ h >.-.V.s.#.W @ ; 0 0 u b i # e W O.e./ f ",
"x 5 + + > e B ( W ` <.< ` <.` ` t.L 3 * k W N h v e ( W H ` H = ",
"A U =.E 5 i u Y ) ) K 8 _ 2.+.G H 8 3 g d ^ W G B 0 h B.J U h u ",
"' E R B v  .` Y b t d 9 h F.( 1 3 h , F k W W W W F , b N h 0 H ",
"( Q ( m W ( D F Z C ! / 8 j j S / W 3 f I W ` Y k g 1 4 u W i M ",
"Q e.b u #./ ` F R ( Q  .W $ u Y E ( U = b L h h h / L ^ I / v B ",
"/ N f W  ./ 2. .f / #.^ L d F N H W ( m : > 2 M ! W ` ` I ^ H N ",
"f H ` O.2.l.2.l.I 0 k F b d k w d T ( } M A l c ' U / ^ _ t.k h ",
"w ( #.` i.2.O.2.9.d 8 k F I w S n F W *.! B z r ' M U ` <.^ u I ",
"9 k 2.` O.B.k.y.%.N ( O.B.f._ ^ 3 N i.W 0 t N @ B B Y Y q.g h / ",
" .3 F B.i.i...<.^ h #.t.} e.i.K u } h , F 2.( w 1 G Y _ I w ` W ",
"( ` * 8 i.i.9.6.N Y B.+.N.t.` ; I B 0 ` e.( `  .b 3 ^ <.w G / @.",
"/ t.Y @ w ( x.` L  .e.a. ./ I - N N t [ [ [ o.[ a.L ; w b Y U [ "
};
