/* XPM */
static char * sea_xpm[] = {
"32 32 831 2",
"  	c #0525AD",
". 	c #0231B1",
"+ 	c #022EB0",
"@ 	c #022DAF",
"# 	c #022BAE",
"$ 	c #0228AD",
"% 	c #0122AA",
"& 	c #011AA7",
"* 	c #010FA4",
"= 	c #0107A3",
"- 	c #0106A4",
"; 	c #0208A6",
"> 	c #0209A7",
", 	c #0207A5",
"' 	c #0203A2",
") 	c #02009D",
"! 	c #030098",
"~ 	c #030091",
"{ 	c #030798",
"] 	c #030EA6",
"^ 	c #0311A9",
"/ 	c #01099E",
"( 	c #04079E",
"_ 	c #000292",
": 	c #020190",
"< 	c #020092",
"[ 	c #021395",
"} 	c #0219AA",
"| 	c #0111A8",
"1 	c #0210AA",
"2 	c #0215AE",
"3 	c #031AB1",
"4 	c #041AAF",
"5 	c #0311A6",
"6 	c #02029B",
"7 	c #030194",
"8 	c #03008F",
"9 	c #020497",
"0 	c #01079B",
"a 	c #010597",
"b 	c #030291",
"c 	c #010291",
"d 	c #020195",
"e 	c #030199",
"f 	c #041AA4",
"g 	c #0322A3",
"h 	c #042DA6",
"i 	c #0535AA",
"j 	c #053AAD",
"k 	c #063EB1",
"l 	c #0742B6",
"m 	c #0949BE",
"n 	c #0B4EC6",
"o 	c #0A49C6",
"p 	c #0639BC",
"q 	c #0427B2",
"r 	c #0318AC",
"s 	c #0316AD",
"t 	c #041DB1",
"u 	c #0625B6",
"v 	c #092CBB",
"w 	c #0B30BD",
"x 	c #0C31BD",
"y 	c #0C2EB9",
"z 	c #0826AF",
"A 	c #04149F",
"B 	c #020292",
"C 	c #03008D",
"D 	c #03008C",
"E 	c #01028E",
"F 	c #02018D",
"G 	c #01018E",
"H 	c #010192",
"I 	c #03039D",
"J 	c #0309A3",
"K 	c #041CA5",
"L 	c #0413A0",
"M 	c #03149E",
"N 	c #041CA0",
"O 	c #0426A4",
"P 	c #0532AB",
"Q 	c #0842B9",
"R 	c #0B4DC8",
"S 	c #0840C2",
"T 	c #0427B3",
"U 	c #0316AB",
"V 	c #051CAF",
"W 	c #0828B6",
"X 	c #092CB6",
"Y 	c #0929B1",
"Z 	c #0924AA",
"` 	c #081CA2",
" .	c #06169D",
"..	c #061299",
"+.	c #050E96",
"@.	c #040A92",
"#.	c #04078F",
"$.	c #04048B",
"%.	c #040087",
"&.	c #020086",
"*.	c #010087",
"=.	c #01018A",
"-.	c #02008B",
";.	c #01018F",
">.	c #030299",
",.	c #030CA8",
"'.	c #031EA4",
").	c #03129F",
"!.	c #030F9C",
"~.	c #04189E",
"{.	c #0427A5",
"].	c #083EB7",
"^.	c #0C4DC9",
"/.	c #0738BD",
"(.	c #031BAD",
"_.	c #0418AC",
":.	c #0727B4",
"<.	c #0A2DB6",
"[.	c #0925AC",
"}.	c #0819A1",
"|.	c #070E9D",
"1.	c #060A9D",
"2.	c #05089D",
"3.	c #04069C",
"4.	c #030499",
"5.	c #020298",
"6.	c #020197",
"7.	c #020194",
"8.	c #020189",
"9.	c #040284",
"0.	c #040183",
"a.	c #010184",
"b.	c #020188",
"c.	c #01008C",
"d.	c #020193",
"e.	c #020DA6",
"f.	c #042EAA",
"g.	c #031CA3",
"h.	c #030F9D",
"i.	c #040F9B",
"j.	c #041CA1",
"k.	c #0636B2",
"l.	c #0C4CC9",
"m.	c #0739BF",
"n.	c #041AAC",
"o.	c #0518AC",
"p.	c #0A2CB5",
"q.	c #0923AB",
"r.	c #0815A1",
"s.	c #0810A1",
"t.	c #0811A2",
"u.	c #060FA1",
"v.	c #030A9C",
"w.	c #000598",
"x.	c #000397",
"y.	c #000398",
"z.	c #010298",
"A.	c #010199",
"B.	c #020099",
"C.	c #010096",
"D.	c #010090",
"E.	c #020187",
"F.	c #020283",
"G.	c #020185",
"H.	c #01008A",
"I.	c #02059E",
"J.	c #032CA9",
"K.	c #0319A1",
"L.	c #030B9B",
"M.	c #03109C",
"N.	c #0424A8",
"O.	c #0B47C4",
"P.	c #0940C4",
"Q.	c #0423B1",
"R.	c #0414A9",
"S.	c #0521B0",
"T.	c #0926B0",
"U.	c #0819A6",
"V.	c #0813A4",
"W.	c #0916A6",
"X.	c #0815A5",
"Y.	c #0510A1",
"Z.	c #02099B",
"`.	c #000498",
" +	c #000297",
".+	c #010299",
"++	c #01039B",
"@+	c #03019B",
"#+	c #000093",
"$+	c #010089",
"%+	c #01008F",
"&+	c #030198",
"*+	c #0329A8",
"=+	c #03139E",
"-+	c #030899",
";+	c #030F9E",
">+	c #0733B5",
",+	c #0B45C6",
"'+	c #0731BA",
")+	c #0415A9",
"!+	c #0418AA",
"~+	c #0727B3",
"{+	c #0929B3",
"]+	c #081FAC",
"^+	c #0714A5",
"/+	c #0815A7",
"(+	c #030A9D",
"_+	c #02069B",
":+	c #000399",
"<+	c #000299",
"[+	c #000298",
"}+	c #00039C",
"|+	c #0106A1",
"1+	c #0107A2",
"2+	c #02069F",
"3+	c #03029C",
"4+	c #010093",
"5+	c #01008D",
"6+	c #01008B",
"7+	c #030196",
"8+	c #0326A6",
"9+	c #020D9B",
"0+	c #030699",
"a+	c #0313A3",
"b+	c #0A3CBE",
"c+	c #093AC0",
"d+	c #0521AF",
"e+	c #0511A7",
"f+	c #0520AE",
"g+	c #0829B4",
"h+	c #0723B0",
"i+	c #0618A9",
"j+	c #0612A6",
"k+	c #0510A3",
"l+	c #030B9E",
"m+	c #03049B",
"n+	c #01029A",
"o+	c #00029B",
"p+	c #0211A7",
"q+	c #0417AC",
"r+	c #0313A8",
"s+	c #030EA4",
"t+	c #0309A0",
"u+	c #03039B",
"v+	c #020094",
"w+	c #030197",
"x+	c #0321A4",
"y+	c #020698",
"z+	c #03029A",
"A+	c #051FAA",
"B+	c #0A39BF",
"C+	c #072CB6",
"D+	c #0513A7",
"E+	c #0419AB",
"F+	c #0626B2",
"G+	c #0623B0",
"H+	c #051BAB",
"I+	c #0413A7",
"J+	c #030EA2",
"K+	c #02089D",
"L+	c #02049C",
"M+	c #03039C",
"N+	c #04029B",
"O+	c #0419AA",
"P+	c #030A9E",
"Q+	c #02089C",
"R+	c #030C9F",
"S+	c #0413A5",
"T+	c #0414A6",
"U+	c #02089E",
"V+	c #03019A",
"W+	c #040098",
"X+	c #050097",
"Y+	c #02079D",
"Z+	c #0219A0",
"`+	c #020296",
" @	c #02039C",
".@	c #072AB3",
"+@	c #0831BA",
"@@	c #061AAB",
"#@	c #0522B0",
"$@	c #031CAD",
"%@	c #0315A9",
"&@	c #020FA4",
"*@	c #010A9F",
"=@	c #02079F",
"-@	c #0405A0",
";@	c #04039F",
">@	c #04039D",
",@	c #02029C",
"'@	c #00019A",
")@	c #0210A2",
"!@	c #0319A6",
"~@	c #000294",
"{@	c #000091",
"]@	c #000190",
"^@	c #010092",
"/@	c #030D9C",
"(@	c #0417A7",
"_@	c #0315A6",
":@	c #0521B2",
"<@	c #010F9A",
"[@	c #02099F",
"}@	c #082CB7",
"|@	c #0829B3",
"1@	c #051DAD",
"2@	c #031DAD",
"3@	c #021AAC",
"4@	c #0117AA",
"5@	c #0113A6",
"6@	c #000EA2",
"7@	c #010BA1",
"8@	c #0308A2",
"9@	c #0305A1",
"0@	c #03039E",
"a@	c #0307A0",
"b@	c #01039C",
"c@	c #01019B",
"d@	c #0421AC",
"e@	c #01119D",
"f@	c #000291",
"g@	c #00008E",
"h@	c #00008D",
"i@	c #00008C",
"j@	c #00008B",
"k@	c #00018D",
"l@	c #02008F",
"m@	c #020393",
"n@	c #020C9C",
"o@	c #010899",
"p@	c #010494",
"q@	c #030FA3",
"r@	c #0729B5",
"s@	c #061EAD",
"t@	c #0514A9",
"u@	c #0115A8",
"v@	c #0013A7",
"w@	c #0011A5",
"x@	c #000FA3",
"y@	c #000CA1",
"z@	c #010AA2",
"A@	c #0206A1",
"B@	c #02029D",
"C@	c #020198",
"D@	c #030AA0",
"E@	c #060FA6",
"F@	c #00009B",
"G@	c #01009B",
"H@	c #0524AC",
"I@	c #062BAE",
"J@	c #0528A9",
"K@	c #01159A",
"L@	c #000391",
"M@	c #00018E",
"N@	c #00008A",
"O@	c #02008C",
"P@	c #0412A7",
"Q@	c #0729B3",
"R@	c #0517AA",
"S@	c #0613A9",
"T@	c #0312A7",
"U@	c #010EA4",
"V@	c #000B9F",
"W@	c #00099F",
"X@	c #00089F",
"Y@	c #0106A0",
"Z@	c #01039E",
"`@	c #020097",
" #	c #020091",
".#	c #020299",
"+#	c #0620AE",
"@#	c #0C32BA",
"##	c #062DAF",
"$#	c #0528AB",
"%#	c #0523A9",
"&#	c #0422A7",
"*#	c #0531AE",
"=#	c #0A46BE",
"-#	c #0A49BB",
";#	c #031B9D",
">#	c #000088",
",#	c #000087",
"'#	c #000189",
")#	c #0412A9",
"!#	c #0515AA",
"~#	c #0611A8",
"{#	c #040DA5",
"]#	c #0209A0",
"^#	c #01079E",
"/#	c #00069D",
"(#	c #00059D",
"_#	c #00049E",
":#	c #01039F",
"<#	c #02019C",
"[#	c #030093",
"}#	c #050095",
"|#	c #04019C",
"1#	c #02009E",
"2#	c #030CA1",
"3#	c #0317A3",
"4#	c #0423A6",
"5#	c #0422A2",
"6#	c #0525A1",
"7#	c #0731A7",
"8#	c #0945B3",
"9#	c #0956C3",
"0#	c #0A5AC6",
"a#	c #072BAE",
"b#	c #000089",
"c#	c #010088",
"d#	c #0410A8",
"e#	c #0829B2",
"f#	c #0517AB",
"g#	c #0610A8",
"h#	c #050CA3",
"i#	c #02089F",
"j#	c #01059D",
"k#	c #01049D",
"l#	c #01039D",
"m#	c #01029E",
"n#	c #02019E",
"o#	c #030099",
"p#	c #040092",
"q#	c #00029E",
"r#	c #0204A1",
"s#	c #04029C",
"t#	c #030095",
"u#	c #010190",
"v#	c #00028B",
"w#	c #000288",
"x#	c #000285",
"y#	c #010285",
"z#	c #03138E",
"A#	c #095AC7",
"B#	c #043CB4",
"C#	c #0211A0",
"D#	c #02008D",
"E#	c #040CA4",
"F#	c #0826B0",
"G#	c #0519AC",
"H#	c #040DA3",
"I#	c #01059E",
"J#	c #02029E",
"K#	c #03009C",
"L#	c #040095",
"M#	c #01019A",
"N#	c #0004A1",
"O#	c #0310A8",
"P#	c #02069D",
"Q#	c #030094",
"R#	c #020090",
"S#	c #02018B",
"T#	c #030189",
"U#	c #04018A",
"V#	c #020D8F",
"W#	c #0A4CBE",
"X#	c #043CB1",
"Y#	c #011AA9",
"Z#	c #010399",
"`#	c #000092",
" $	c #00008F",
".$	c #01008E",
"+$	c #0308A0",
"@$	c #0720AD",
"#$	c #061EAE",
"$$	c #0410A5",
"%$	c #020BA1",
"&$	c #02029F",
"*$	c #03019E",
"=$	c #03009D",
"-$	c #030092",
";$	c #010196",
">$	c #01029D",
",$	c #0210A7",
"'$	c #01049B",
")$	c #020095",
"!$	c #020191",
"~$	c #010191",
"{$	c #03018F",
"]$	c #04008E",
"^$	c #040290",
"/$	c #0126A1",
"($	c #074EBF",
"_$	c #093FBA",
":$	c #010AA0",
"<$	c #00019C",
"[$	c #01009D",
"}$	c #02049A",
"|$	c #0515A7",
"1$	c #0721AE",
"2$	c #030DA3",
"3$	c #0307A1",
"4$	c #03029F",
"5$	c #040097",
"6$	c #010194",
"7$	c #0108A3",
"8$	c #0520B1",
"9$	c #031AA8",
"0$	c #00039F",
"a$	c #020098",
"b$	c #020192",
"c$	c #060091",
"d$	c #020096",
"e$	c #054CBE",
"f$	c #0542BD",
"g$	c #062BB3",
"h$	c #0931BB",
"i$	c #0622A7",
"j$	c #021BA1",
"k$	c #0325A3",
"l$	c #020394",
"m$	c #010294",
"n$	c #030AA1",
"o$	c #071EAB",
"p$	c #0414A7",
"q$	c #030EA5",
"r$	c #0307A2",
"s$	c #0209A3",
"t$	c #041BAE",
"u$	c #0627B3",
"v$	c #0114A4",
"w$	c #0104A0",
"x$	c #02019A",
"y$	c #020295",
"z$	c #030295",
"A$	c #050497",
"B$	c #041598",
"C$	c #0444B1",
"D$	c #0854C7",
"E$	c #0419A8",
"F$	c #0108A1",
"G$	c #0422AD",
"H$	c #083BB8",
"I$	c #0B4EBD",
"J$	c #0A6AC6",
"K$	c #0615A9",
"L$	c #040FA3",
"M$	c #0617A8",
"N$	c #0512A7",
"O$	c #030DA4",
"P$	c #000095",
"Q$	c #0415AA",
"R$	c #0626B3",
"S$	c #052BB1",
"T$	c #0015A2",
"U$	c #0209A2",
"V$	c #03059A",
"W$	c #03079C",
"X$	c #02119E",
"Y$	c #0C5ABE",
"Z$	c #0B73CC",
"`$	c #0428A7",
" %	c #04029D",
".%	c #01009C",
"+%	c #02059C",
"@%	c #02159E",
"#%	c #0424A2",
"$%	c #0541B2",
"%%	c #020995",
"&%	c #050CA2",
"*%	c #010293",
"=%	c #04059F",
"-%	c #040BA2",
";%	c #040DA4",
">%	c #030AA3",
",%	c #0207A2",
"'%	c #02049F",
")%	c #0510A5",
"!%	c #051AAC",
"~%	c #0629B4",
"{%	c #0535B2",
"]%	c #0123A6",
"^%	c #0416A6",
"/%	c #030B9F",
"(%	c #050BA3",
"_%	c #020CA1",
":%	c #043FB4",
"<%	c #1498E3",
"[%	c #0542AF",
"}%	c #03009B",
"|%	c #01019E",
"1%	c #041DA7",
"2%	c #082EB6",
"3%	c #010082",
"4%	c #030A99",
"5%	c #010091",
"6%	c #010295",
"7%	c #0505A0",
"8%	c #0406A1",
"9%	c #0205A1",
"0%	c #03049C",
"a%	c #030192",
"b%	c #020093",
"c%	c #030EA0",
"d%	c #071CAD",
"e%	c #0525B0",
"f%	c #063DB6",
"g%	c #0436B0",
"h%	c #0624AE",
"i%	c #0418A7",
"j%	c #060FAA",
"k%	c #010FA6",
"l%	c #095AC8",
"m%	c #0B91DD",
"n%	c #084CB8",
"o%	c #0219A8",
"p%	c #0212A6",
"q%	c #0111AB",
"r%	c #011AAB",
"s%	c #0432B6",
"t%	c #0748C3",
"u%	c #053FB8",
"v%	c #040083",
"w%	c #030084",
"x%	c #010397",
"y%	c #020199",
"z%	c #000090",
"A%	c #05069F",
"B%	c #0606A2",
"C%	c #0405A1",
"D%	c #0306A1",
"E%	c #0508A1",
"F%	c #06079B",
"G%	c #050597",
"H%	c #010699",
"I%	c #061FAE",
"J%	c #0522AF",
"K%	c #0333B2",
"L%	c #0648B9",
"M%	c #0833B5",
"N%	c #0825B1",
"O%	c #061AAE",
"P%	c #020CA9",
"Q%	c #0332B4",
"R%	c #0670CF",
"S%	c #0963C7",
"T%	c #0963C6",
"U%	c #0536C0",
"V%	c #032EB9",
"W%	c #0335BA",
"X%	c #063FBF",
"Y%	c #063BBA",
"Z%	c #0532B3",
"`%	c #0732A9",
" &	c #020088",
".&	c #000197",
"+&	c #03069C",
"@&	c #03069D",
"#&	c #04079D",
"$&	c #06099D",
"%&	c #090A9E",
"&&	c #051EA8",
"*&	c #072AB6",
"=&	c #042AB2",
"-&	c #0245B6",
";&	c #094BC1",
">&	c #0B31B8",
",&	c #0621AE",
"'&	c #030DA9",
")&	c #032DB2",
"!&	c #012FB3",
"~&	c #0845BA",
"{&	c #0B81D7",
"]&	c #033EBE",
"^&	c #0224B4",
"/&	c #052AB8",
"(&	c #0520B3",
"_&	c #050EAA",
":&	c #066FC6",
"<&	c #105AC0",
"[&	c #060D8D",
"}&	c #010198",
"|&	c #00018F",
"1&	c #010292",
"2&	c #030394",
"3&	c #050699",
"4&	c #0710A2",
"5&	c #0822AF",
"6&	c #0B3BBC",
"7&	c #042CB2",
"8&	c #0435B5",
"9&	c #044FBE",
"0&	c #083EBB",
"a&	c #0620AB",
"b&	c #0311A1",
"c&	c #03039F",
"d&	c #0422B0",
"e&	c #011DA9",
"f&	c #0866CB",
"g&	c #033EB7",
"h&	c #020AA6",
"i&	c #010AA4",
"j&	c #034FBD",
"k&	c #046FC7",
"l&	c #0A5AB9",
"m&	c #05098E",
"n&	c #01039A",
"o&	c #020297",
"p&	c #02069A",
"q&	c #020FA0",
"r&	c #0529AF",
"s&	c #0C41BF",
"t&	c #042FB0",
"u&	c #0429B0",
"v&	c #0441B7",
"w&	c #0744BF",
"x&	c #0416A5",
"y&	c #02059B",
"z&	c #03009A",
"A&	c #00029A",
"B&	c #0424B3",
"C&	c #0316A9",
"D&	c #094CC7",
"E&	c #0447B9",
"F&	c #0500A4",
"G&	c #0300A3",
"H&	c #020398",
"I&	c #022BA7",
"J&	c #0461C2",
"K&	c #055CB8",
"L&	c #052D9D",
"M&	c #010498",
"N&	c #0107A1",
"O&	c #0206A2",
"P&	c #0303A0",
"Q&	c #041FA6",
"R&	c #0732B4",
"S&	c #0635B6",
"T&	c #0221AA",
"U&	c #083BB7",
"V&	c #0731B2",
"W&	c #02009A",
"X&	c #02009C",
"Y&	c #0523B4",
"Z&	c #0108A2",
"`&	c #0943C5",
" *	c #0719A7",
".*	c #0201A4",
"+*	c #030292",
"@*	c #030195",
"#*	c #031CA1",
"$*	c #0A53C1",
"%*	c #0669C3",
"&*	c #0866BC",
"**	c #0546A7",
"=*	c #04039C",
"-*	c #04089F",
";*	c #02079E",
">*	c #01089E",
",*	c #010A9E",
"'*	c #020C9E",
")*	c #0413A2",
"!*	c #0C37B8",
"~*	c #0C37B2",
"{*	c #03029B",
"]*	c #04009F",
"^*	c #0817B0",
"/*	c #040EA8",
"(*	c #0201A0",
"_*	c #092EB7",
":*	c #041BAB",
"<*	c #0300A5",
"[*	c #0214A4",
"}*	c #0417A3",
"|*	c #05099B",
"1*	c #04019A",
"2*	c #032DAA",
"3*	c #085FC3",
"4*	c #0A7ED0",
"5*	c #0D8CD5",
"6*	c #097BC7",
"7*	c #0662B7",
"8*	c #0439A7",
"9*	c #032DA4",
"0*	c #032BA6",
"a*	c #052FAD",
"b*	c #0734B4",
"c*	c #0835B8",
"d*	c #0730B3",
"e*	c #03049A",
"f*	c #04009D",
"g*	c #03009E",
"h*	c #0300A1",
"i*	c #0309A6",
"j*	c #050FAB",
"k*	c #0407A6",
"l*	c #0404A4",
"m*	c #0A29B0",
"n*	c #032DB6",
"o*	c #073AC0",
"p*	c #0630B6",
"q*	c #0518A6",
"r*	c #0218A6",
"s*	c #0542B9",
"t*	c #0757C4",
"u*	c #0667CA",
"v*	c #0774CF",
"w*	c #0877D3",
"x*	c #076ECE",
"y*	c #0759C4",
"z*	c #0644BA",
"A*	c #0532B1",
"B*	c #0400A2",
"C*	c #0504A8",
"D*	c #0510AD",
"E*	c #0206A5",
"F*	c #0001A1",
"G*	c #0302A1",
"H*	c #0831B2",
"I*	c #0212A5",
"J*	c #0936BB",
"K*	c #042BB1",
"L*	c #0223AC",
"M*	c #031BAA",
"N*	c #030FA4",
"O*	c #020C9F",
"P*	c #0210A1",
"Q*	c #0314A6",
"R*	c #0416A8",
"S*	c #0111A2",
"T*	c #010EA0",
"U*	c #01079D",
"V*	c #0400A0",
"W*	c #0503A7",
"X*	c #070BAD",
"Y*	c #0001A0",
"Z*	c #0002A2",
"`*	c #00069A",
" =	c #0934B5",
".=	c #01049F",
"+=	c #030097",
"          . + @ # $ % & * = - ; > , ' ) ! ~ { ] ^ / ( _ : < [ [ ",
"                            } | 1 2 3 4 5 6 7 8 9 0 a b c d e [ ",
"  f g h i j k l m n o p q r s t u v w x y z A B C D E F G H I J ",
"  K L M N O P Q R S T U V W X Y Z `  ...+.@.#.$.%.&.*.=.-.;.>.,.",
"  '.).!.~.{.].^./.(._.:.<.[.}.|.1.2.3.4.5.6.7.;.8.9.0.a.b.c.d.e.",
"f.g.h.i.j.k.l.m.n.o.:.p.q.r.s.t.u.v.w.x.y.z.A.B.C.D.E.F.G.H.D.I.",
"J.K.L.M.N.O.P.Q.R.S.X T.U.V.W.X.Y.Z.`.y. +.+++6 @+B.#+=.E.$+%+&+",
"*+=+-+;+>+,+'+)+!+~+{+]+^+/+X.Y.(+_+:+<+[+}+|+1+2+3+B.4+5+6+D.7+",
"8+9+0+a+b+c+d+e+f+g+h+i+j+k+l+_+m+m+n+<+o+p+q+r+s+t+u+B.C.4+v+w+",
"x+y+z+A+B+C+D+E+F+G+H+I+J+K+L+M+N+M+n+o+n.O+P+Q+R+S+T+U+V+W+X+Y+",
"Z+`+ @.@+@@@)+#@d+$@%@&@*@=@-@;@>@,@'@)@!@~@{@]@]@]@^@/@(@O+_@:@",
"<@v+[@}@|@e+1@2@3@4@5@6@7@8@9@0@a@b@c@d@e@f@g@h@i@j@j@k@l@m@n@o@",
"p@v+q@r@s@t@E+u@v@w@x@y@z@A@B@C@D@E@F@G@H@I@J@K@L@M@h@j@N@i@O@c.",
"g@7.P@Q@R@S@T@U@y@V@W@X@Y@Z@`@ #.#+#@###$#%#&#*#=#-#;#5+h@N@>#,#",
"'#7.)#|@!#~#{#]#^#/#(#_#:#<#[#}#|#1#2#3#4#5#6#7#8#9#0#a#5+i@b#,#",
"c#H d#e#f#g#h#i#j#k#l#m#n#o#p#o#q#r#s#t#u#v#w#x#y#z#A#B#C#5+j@b#",
"D#u#E#F#G#~#H#[@I#Z@J#n#K#L#[#M#N#O#P#Q#R#F S#T#U#V#W#X#Y#Z#`# $",
"v+.$+$@$#$t@$$%$2+&$*$=$W+-$;$>$,$E+'$)$!$~${$]$^$/$($_$:$'$<$[$",
"o#D.}$|$1$R@P@2$3$4$K#5$-$6$M#7$8$9$0$a$b$b$p#c$d$e$f$g$h$i$j$k$",
"l$d$m$n$o$@@p$q$r$J#! -$#+A.s$t$u$v$w$x$y$z$A$B$C$D$E$F$G$H$I$J$",
"K$x$~$L+L$M$N$O$8@B@)$ #P$t+Q$R$S$T$U$ @V$W$X$Y$Z$`$ %.%+%@%#%$%",
"%%&%C.*%=%-%;%>%,%'%d$R#P$)%!%~%{%]%^%/%(%_%:%<%[%}%n#|%c@M#1%2%",
"3%4%M+5%6%7%8%9@9%9%0%a%b%c%d%e%f%g%h%i%j%k%l%m%n%o%p%q%r%s%t%u%",
"v%w%x%y%z%m$A%B%C%D%E%F%G%H%I%J%K%L%M%N%O%P%Q%R%S%T%U%V%W%X%Y%Z%",
"`%$. &.&A.5%]@9 +&@&#&$&%&s.&&*&=&-&;&>&,&'&,%)&!&~&{&]&^&/&(&_&",
":&<&[&D#}&c@;$ $|&f@1&2&3&4&5&6&7&8&9&0&a&b&c&x$d&e&4#f&g&h&7$i&",
"j&k&l&m&u#n&n#@+C@;$;$o&p&q&r&s&t&u&v&w&x&y&x$z&A&B&C&K#D&E&F&G&",
"H&I&J&K&L&;.M&N&O&P&0@M+P+Q&R&S&T&o%U&V&) B.W&}%X&U$Y&Z&k#`& *.*",
"+*@*#*$*%*&***C.=*-*;*>*,*'*'*6 )*!*~*{*n+o#K#K#]*9%^*/*(*_*:*<*",
"[*}*|*1*2*3*4*5*6*7*8*9*0*a*b*c*d*#*e*.+y%=$f*g*h*i*j*k*l*m*(.g*",
"n*o*p*&&q*r*s*t*u*v*w*x*y*z*A*1%9@&$:#=$f*K#=$B*C*D*E*F*G*H*I*! ",
"J*K*L*M*N*O*P*Q*R*v$S*T*U*>$l#++.+C@! o#z&}%V*W*X*E*Y*Z*`* =.=+="};
