/* XPM */
static char * stone_xpm[] = {
"32 32 5 1",
" 	c #999999",
".	c #BBBBBB",
"+	c #000000",
"@	c #FFFFFF",
"#	c #AAAAAA",
" . .. ...  ...+@+@..  . ....  ..",
"..  . ..... .+@.#+@... . .......",
"..... ....  +@..##+@..  .  .... ",
". ....... .+@.##.  +@.. .. . ...",
".. ...  ..+@.#..#   +@. .. . .  ",
"...   .. +@.#. #..#  +@.... ... ",
".  . ...+@.##...#. #  +@. ... ..",
".... ..+@.#..#. #... . +@... . .",
".  ...+@..##. ..#  ..## +@. .. .",
"... .+@.##     ..## ..#. +@.    ",
"..  +@.##.... #...# .....#+@.. .",
". .+@.##. #...#.. ...##.. #+@...",
"..+@.##..##..#  .. ..# .. # +@. ",
" +@.## ... ..##. #.... #..#  +@.",
"+@..#. #..#......#..#...#  .  +@",
"@.##. ....# ....#...##. #. # . +",
"@.## . ..#. #... . ..#..#  ..##+",
"+@..##. ...##..#..  . ...## . +@",
".+@..##.  .... ..#... #...#  +@.",
". +@.##..## ..... #...#.. . +@..",
".  +@.##. # .  ... #..  .. +@...",
"... +@.##. ... #..#   .. #+@. ..",
".. . +@.##..#...#  . ... +@...  ",
".... .+@.## . . #..##.. +@.. ...",
".  ....+@.##. ..#  ..##+@.... . ",
"... .. .+@.##  ..## . +@.. .. ..",
"..  .....+@..##...#  +@...     .",
". ....... +@.##.. . +@.. .... ..",
".. ..  ..  +@.##.. +@.... ......",
" ..... .... +@..##+@..... ....  ",
".... ....  . +@.#+@. . ... .....",
" .... . .. . .+@+@.. . ... ....."};
